# xmcd CD database file
#
# Track frame offsets:
#	150
#	15685
#	27871
#	41853
#	58727
#	74571
#	92009
#	110394
#	123688
#	137207
#	149938
#	166373
#	181768
#	196397
#
# Disc length: 2919 seconds
#
# Revision: 3
# Processed by: cddbd v1.5.2PL0 Copyright (c) Steve Scherf et al.
# Submitted via: CDex 1.40Release
#
DISCID=d70b650e
DTITLE=Chitãzinho e Xororó - Vida Marvada
DYEAR=2006
DGENRE=Sertaneja
TTITLE0=Vida pelo Avesso
TTITLE1=Beijinho Doce
TTITLE2=É Amor, É Paixão
TTITLE3=Gosto
TTITLE4=Vida Marvada
TTITLE5=Cara No Muro
TTITLE6=Malagueña Salerosa
TTITLE7=Uma Noite
TTITLE8=Você Perto De Mim
TTITLE9=Mulher Sempre Mulher
TTITLE10=Será Que Eu Sou
TTITLE11=Um Minuto Sem Você
TTITLE12=O Mineiro E O Italiano
TTITLE13=Arrasta Uma Cadeira
EXTD=YEAR: 2006
EXTT0=
EXTT1=
EXTT2=
EXTT3=
EXTT4=
EXTT5=
EXTT6=
EXTT7=
EXTT8=
EXTT9=
EXTT10=
EXTT11=
EXTT12=
EXTT13=
PLAYORDER=
